<svg width="28" height="28" viewBox="0 0 28 28" fill="none" xmlns="http://www.w3.org/2000/svg">
<path d="M20.6456 14.1179C20.6456 17.7565 17.7083 20.7062 14.0849 20.7062C10.4614 20.7062 7.52409 17.7565 7.52409 14.1179C7.52409 10.4792 10.4614 7.52954 14.0849 7.52954C17.7083 7.52954 20.6456 10.4792 20.6456 14.1179Z" fill="#F7D744"/>
<path d="M15.0221 3.29417C15.0221 5.11349 14.6025 6.58835 14.0849 6.58835C13.5672 6.58835 13.1476 5.11349 13.1476 3.29417C13.1476 1.47485 13.5672 0 14.0849 0C14.6025 0 15.0221 1.47485 15.0221 3.29417Z" fill="white"/>
<path d="M18.8524 4.36509C18.1979 6.06156 17.2761 7.28459 16.7934 7.09682C16.3108 6.90904 16.45 5.38156 17.1045 3.68509C17.7589 1.98863 18.6808 0.76559 19.1635 0.953366C19.6461 1.14114 19.5069 2.66862 18.8524 4.36509Z" fill="white"/>
<path d="M22.0388 6.75312C20.8183 8.09761 19.5188 8.90366 19.1362 8.55347C18.7537 8.20327 19.433 6.82946 20.6536 5.48496C21.8741 4.14047 23.1736 3.33443 23.5562 3.68462C23.9387 4.03481 23.2594 5.40862 22.0388 6.75312Z" fill="white"/>
<path d="M24.151 10.1359C22.5292 10.9468 21.0275 11.227 20.7967 10.7617C20.566 10.2964 21.6937 9.26175 23.3154 8.45081C24.9372 7.63987 26.439 7.35968 26.6697 7.82499C26.9004 8.2903 25.7728 9.32491 24.151 10.1359Z" fill="white"/>
<path d="M24.9038 14.0563C23.0998 14.2242 21.5987 13.9407 21.5509 13.4231C21.5031 12.9055 22.9268 12.3498 24.7308 12.182C26.5348 12.0141 28.0359 12.2976 28.0837 12.8152C28.1314 13.3328 26.7077 13.8885 24.9038 14.0563Z" fill="white"/>
<path d="M24.1953 17.9851C22.4528 17.4872 21.155 16.6783 21.2966 16.1783C21.4383 15.6783 22.9657 15.6766 24.7083 16.1745C26.4508 16.6724 27.7486 17.4813 27.6069 17.9813C27.4653 18.4812 25.9378 18.4829 24.1953 17.9851Z" fill="white"/>
<path d="M22.1214 21.3916C20.6756 20.2952 19.7565 19.0702 20.0684 18.6554C20.3804 18.2405 21.8053 18.7931 23.251 19.8895C24.6968 20.9858 25.616 22.2109 25.304 22.6257C24.9921 23.0405 23.5672 22.488 22.1214 21.3916Z" fill="white"/>
<path d="M18.9621 23.8159C18.0084 22.269 17.592 20.7933 18.0321 20.5196C18.4722 20.246 19.6021 21.2781 20.5559 22.8249C21.5096 24.3717 21.926 25.8475 21.4859 26.1212C21.0458 26.3948 19.9159 25.3627 18.9621 23.8159Z" fill="white"/>
<path d="M15.1441 24.9301C14.8112 23.1417 14.9538 21.6146 15.4627 21.5191C15.9715 21.4235 16.6538 22.7959 16.9867 24.5842C17.3196 26.3725 17.177 27.8997 16.6682 27.9952C16.1594 28.0907 15.477 26.7184 15.1441 24.9301Z" fill="white"/>
<path d="M11.1831 24.5843C11.516 22.7959 12.1983 21.4236 12.7071 21.5191C13.2159 21.6146 13.3585 23.1418 13.0256 24.9302C12.6927 26.7185 12.0104 28.0908 11.5016 27.9953C10.9928 27.8998 10.8502 26.3726 11.1831 24.5843Z" fill="white"/>
<path d="M7.61393 22.8248C8.56767 21.278 9.6976 20.2459 10.1377 20.5195C10.5778 20.7931 10.1614 22.2689 9.20766 23.8157C8.25392 25.3626 7.124 26.3947 6.6839 26.121C6.2438 25.8474 6.66019 24.3716 7.61393 22.8248Z" fill="white"/>
<path d="M4.91867 19.8896C6.36444 18.7932 7.78935 18.2407 8.10129 18.6555C8.41323 19.0703 7.49408 20.2954 6.04831 21.3918C4.60253 22.4882 3.17763 23.0407 2.86568 22.6259C2.55374 22.2111 3.47289 20.986 4.91867 19.8896Z" fill="white"/>
<path d="M3.46143 16.1747C5.20398 15.6768 6.73142 15.6785 6.87308 16.1785C7.01473 16.6784 5.71696 17.4873 3.97441 17.9852C2.23187 18.4831 0.704422 18.4814 0.562766 17.9815C0.42111 17.4815 1.71889 16.6726 3.46143 16.1747Z" fill="white"/>
<path d="M3.43887 12.1819C5.24285 12.3498 6.66655 12.9054 6.61878 13.423C6.57102 13.9406 5.06989 14.2241 3.26592 14.0563C1.46194 13.8884 0.0382454 13.3327 0.0860063 12.8151C0.133767 12.2975 1.6349 12.014 3.43887 12.1819Z" fill="white"/>
<path d="M4.8542 8.45072C6.47598 9.26166 7.60364 10.2963 7.37291 10.7616C7.14219 11.2269 5.64044 10.9467 4.01867 10.1358C2.39689 9.32482 1.26923 8.29022 1.49996 7.8249C1.73068 7.35959 3.23243 7.63978 4.8542 8.45072Z" fill="white"/>
<path d="M7.51611 5.48497C8.73665 6.82946 9.41598 8.20328 9.03345 8.55347C8.65092 8.90366 7.35137 8.09762 6.13083 6.75312C4.9103 5.40863 4.23096 4.03481 4.61349 3.68462C4.99602 3.33443 6.29557 4.14047 7.51611 5.48497Z" fill="white"/>
<path d="M11.0653 3.68501C11.7197 5.38148 11.859 6.90896 11.3763 7.09673C10.8936 7.28451 9.9718 6.06147 9.31734 4.36501C8.66287 2.66854 8.52361 1.14106 9.00629 0.953284C9.48896 0.765508 10.4108 1.98854 11.0653 3.68501Z" fill="white"/>
</svg>
